<svg id="visual" viewBox="0 0 900 600" width="900" height="600" xmlns="http://www.w3.org/2000/svg" xmlns:xlink="http://www.w3.org/1999/xlink" version="1.1"><g stroke-width="1" stroke-linejoin="bevel"><path d="M473 291L419 179L404 263Z" fill="#1d4e6b" stroke="#1d4e6b"></path><path d="M473 291L520 175L419 179Z" fill="#205a7a" stroke="#205a7a"></path><path d="M520 175L488 119L419 179Z" fill="#00101c" stroke="#00101c"></path><path d="M473 291L572 320L520 175Z" fill="#205a7a" stroke="#205a7a"></path><path d="M419 179L310 266L404 263Z" fill="#205a7a" stroke="#205a7a"></path><path d="M416 435L512 422L473 291Z" fill="#00101c" stroke="#00101c"></path><path d="M473 291L512 422L572 320Z" fill="#297ea6" stroke="#297ea6"></path><path d="M284 200L310 266L419 179Z" fill="#081a28" stroke="#081a28"></path><path d="M572 320L627 224L520 175Z" fill="#112e42" stroke="#112e42"></path><path d="M520 175L595 97L488 119Z" fill="#0c2435" stroke="#0c2435"></path><path d="M488 119L395 65L419 179Z" fill="#205a7a" stroke="#205a7a"></path><path d="M313 94L284 200L419 179Z" fill="#081a28" stroke="#081a28"></path><path d="M627 224L595 97L520 175Z" fill="#246688" stroke="#246688"></path><path d="M488 119L464 0L395 65Z" fill="#15384f" stroke="#15384f"></path><path d="M395 65L313 94L419 179Z" fill="#0c2435" stroke="#0c2435"></path><path d="M416 435L473 291L404 263Z" fill="#277297" stroke="#277297"></path><path d="M572 320L665 237L627 224Z" fill="#246688" stroke="#246688"></path><path d="M627 224L705 63L595 97Z" fill="#205a7a" stroke="#205a7a"></path><path d="M736 307L665 237L572 320Z" fill="#081a28" stroke="#081a28"></path><path d="M310 266L416 435L404 263Z" fill="#0c2435" stroke="#0c2435"></path><path d="M512 422L593 399L572 320Z" fill="#246688" stroke="#246688"></path><path d="M595 97L464 0L488 119Z" fill="#1d4e6b" stroke="#1d4e6b"></path><path d="M395 65L288 0L313 94Z" fill="#19435d" stroke="#19435d"></path><path d="M464 0L413 0L395 65Z" fill="#246688" stroke="#246688"></path><path d="M184 99L219 228L284 200Z" fill="#246688" stroke="#246688"></path><path d="M284 200L219 228L310 266Z" fill="#205a7a" stroke="#205a7a"></path><path d="M310 266L263 421L416 435Z" fill="#246688" stroke="#246688"></path><path d="M416 435L479 476L512 422Z" fill="#246688" stroke="#246688"></path><path d="M512 422L606 478L593 399Z" fill="#0c2435" stroke="#0c2435"></path><path d="M115 178L189 263L219 228Z" fill="#081a28" stroke="#081a28"></path><path d="M219 228L189 263L310 266Z" fill="#00101c" stroke="#00101c"></path><path d="M222 417L263 421L310 266Z" fill="#081a28" stroke="#081a28"></path><path d="M416 435L392 513L479 476Z" fill="#112e42" stroke="#112e42"></path><path d="M705 63L625 0L595 97Z" fill="#246688" stroke="#246688"></path><path d="M595 97L625 0L464 0Z" fill="#1d4e6b" stroke="#1d4e6b"></path><path d="M413 0L288 0L395 65Z" fill="#00101c" stroke="#00101c"></path><path d="M313 94L184 99L284 200Z" fill="#00101c" stroke="#00101c"></path><path d="M593 399L736 307L572 320Z" fill="#00101c" stroke="#00101c"></path><path d="M665 237L705 63L627 224Z" fill="#112e42" stroke="#112e42"></path><path d="M685 438L736 307L593 399Z" fill="#00101c" stroke="#00101c"></path><path d="M479 476L606 478L512 422Z" fill="#19435d" stroke="#19435d"></path><path d="M280 465L392 513L416 435Z" fill="#00101c" stroke="#00101c"></path><path d="M479 476L532 600L606 478Z" fill="#19435d" stroke="#19435d"></path><path d="M222 417L280 465L263 421Z" fill="#205a7a" stroke="#205a7a"></path><path d="M263 421L280 465L416 435Z" fill="#297ea6" stroke="#297ea6"></path><path d="M810 135L705 63L665 237Z" fill="#297ea6" stroke="#297ea6"></path><path d="M189 263L222 417L310 266Z" fill="#00101c" stroke="#00101c"></path><path d="M288 0L184 99L313 94Z" fill="#205a7a" stroke="#205a7a"></path><path d="M606 478L685 438L593 399Z" fill="#205a7a" stroke="#205a7a"></path><path d="M705 63L668 0L625 0Z" fill="#297ea6" stroke="#297ea6"></path><path d="M685 438L760 323L736 307Z" fill="#112e42" stroke="#112e42"></path><path d="M829 235L810 135L665 237Z" fill="#246688" stroke="#246688"></path><path d="M115 178L131 313L189 263Z" fill="#1d4e6b" stroke="#1d4e6b"></path><path d="M189 263L131 313L222 417Z" fill="#19435d" stroke="#19435d"></path><path d="M288 0L198 0L184 99Z" fill="#112e42" stroke="#112e42"></path><path d="M184 99L115 178L219 228Z" fill="#112e42" stroke="#112e42"></path><path d="M89 118L115 178L184 99Z" fill="#00101c" stroke="#00101c"></path><path d="M829 235L665 237L736 307Z" fill="#19435d" stroke="#19435d"></path><path d="M705 63L782 0L668 0Z" fill="#19435d" stroke="#19435d"></path><path d="M760 323L829 235L736 307Z" fill="#112e42" stroke="#112e42"></path><path d="M900 300L829 235L760 323Z" fill="#297ea6" stroke="#297ea6"></path><path d="M362 600L532 600L392 513Z" fill="#19435d" stroke="#19435d"></path><path d="M392 513L532 600L479 476Z" fill="#246688" stroke="#246688"></path><path d="M606 478L699 528L685 438Z" fill="#081a28" stroke="#081a28"></path><path d="M264 600L362 600L280 465Z" fill="#277297" stroke="#277297"></path><path d="M280 465L362 600L392 513Z" fill="#297ea6" stroke="#297ea6"></path><path d="M177 528L280 465L222 417Z" fill="#277297" stroke="#277297"></path><path d="M563 600L699 528L606 478Z" fill="#112e42" stroke="#112e42"></path><path d="M685 438L806 402L760 323Z" fill="#081a28" stroke="#081a28"></path><path d="M103 0L89 118L184 99Z" fill="#297ea6" stroke="#297ea6"></path><path d="M0 273L98 371L131 313Z" fill="#0c2435" stroke="#0c2435"></path><path d="M532 600L563 600L606 478Z" fill="#15384f" stroke="#15384f"></path><path d="M0 273L131 313L115 178Z" fill="#15384f" stroke="#15384f"></path><path d="M131 313L98 371L222 417Z" fill="#297ea6" stroke="#297ea6"></path><path d="M777 526L806 402L685 438Z" fill="#19435d" stroke="#19435d"></path><path d="M810 135L782 0L705 63Z" fill="#205a7a" stroke="#205a7a"></path><path d="M90 507L177 528L222 417Z" fill="#297ea6" stroke="#297ea6"></path><path d="M177 528L264 600L280 465Z" fill="#297ea6" stroke="#297ea6"></path><path d="M198 0L103 0L184 99Z" fill="#00101c" stroke="#00101c"></path><path d="M763 600L777 526L699 528Z" fill="#19435d" stroke="#19435d"></path><path d="M699 528L777 526L685 438Z" fill="#297ea6" stroke="#297ea6"></path><path d="M829 235L900 212L810 135Z" fill="#246688" stroke="#246688"></path><path d="M810 135L900 66L782 0Z" fill="#246688" stroke="#246688"></path><path d="M900 300L900 212L829 235Z" fill="#112e42" stroke="#112e42"></path><path d="M900 300L760 323L806 402Z" fill="#297ea6" stroke="#297ea6"></path><path d="M900 372L900 300L806 402Z" fill="#277297" stroke="#277297"></path><path d="M563 600L712 600L699 528Z" fill="#19435d" stroke="#19435d"></path><path d="M0 122L0 216L89 118Z" fill="#19435d" stroke="#19435d"></path><path d="M89 118L0 216L115 178Z" fill="#081a28" stroke="#081a28"></path><path d="M98 371L90 507L222 417Z" fill="#112e42" stroke="#112e42"></path><path d="M0 216L0 273L115 178Z" fill="#1d4e6b" stroke="#1d4e6b"></path><path d="M0 418L90 507L98 371Z" fill="#112e42" stroke="#112e42"></path><path d="M177 528L172 600L264 600Z" fill="#19435d" stroke="#19435d"></path><path d="M900 495L900 372L806 402Z" fill="#081a28" stroke="#081a28"></path><path d="M120 600L172 600L177 528Z" fill="#081a28" stroke="#081a28"></path><path d="M0 0L0 122L89 118Z" fill="#112e42" stroke="#112e42"></path><path d="M900 212L900 66L810 135Z" fill="#297ea6" stroke="#297ea6"></path><path d="M712 600L763 600L699 528Z" fill="#246688" stroke="#246688"></path><path d="M777 526L900 495L806 402Z" fill="#081a28" stroke="#081a28"></path><path d="M0 273L0 418L98 371Z" fill="#277297" stroke="#277297"></path><path d="M90 507L120 600L177 528Z" fill="#0c2435" stroke="#0c2435"></path><path d="M900 66L900 0L782 0Z" fill="#19435d" stroke="#19435d"></path><path d="M0 600L120 600L90 507Z" fill="#19435d" stroke="#19435d"></path><path d="M103 0L0 0L89 118Z" fill="#00101c" stroke="#00101c"></path><path d="M900 600L900 495L777 526Z" fill="#1d4e6b" stroke="#1d4e6b"></path><path d="M0 418L0 488L90 507Z" fill="#205a7a" stroke="#205a7a"></path><path d="M763 600L900 600L777 526Z" fill="#00101c" stroke="#00101c"></path><path d="M0 488L0 600L90 507Z" fill="#277297" stroke="#277297"></path></g></svg>